<svg width="198" height="58" viewBox="0 0 198 58" fill="none" xmlns="http://www.w3.org/2000/svg" role="img" aria-label="The oregonlive.com logo">
<path fill-rule="evenodd" clip-rule="evenodd" d="M32.6014 55.0712C31.5712 55.4487 26.3731 56.3422 22.6027 54.474C19.9679 53.1627 17.4852 51.2226 15.227 47.6754C15.227 47.6754 24.1892 42.6813 27.3664 38.324C28.7563 36.42 28.76 31.3414 28.76 31.3414V11.3979C28.76 11.3979 28.7236 11.3979 32.6014 11.3979V55.0712ZM34.4053 0.938477L19.7194 15.2991V40.0037C19.7194 40.0037 19.5076 41.9059 18.6596 43.1672C17.8866 44.326 15.0671 46.2695 14.5828 46.5963C13.5023 44.674 12.6479 42.4998 12.1752 40.1066C10.2556 30.4848 11.4048 22.4647 14.0812 16.3477C16.2125 11.4881 19.2745 10.0025 20.3077 9.31842C21.7996 8.33175 25.6391 6.92292 24.1945 6.74407C22.7521 6.56485 17.3272 7.24635 12.1752 10.6475C7.56195 13.6913 0.487034 20.5797 0.788501 34.1937C1.10574 48.8714 11.7502 54.9919 18.7677 56.3675C25.4075 57.6646 29.6258 57.2134 32.8109 56.3675C33.2407 56.2539 33.552 56.1455 33.7735 56.0452C37.5983 54.9882 43.2324 50.4543 45.3648 47.8188C47.4968 45.1789 55.2329 33.6079 50.3579 18.5706C45.9778 5.05281 34.4053 0.938477 34.4053 0.938477Z" fill="#1A1919"></path></svg>